<svg xmlns="http://www.w3.org/2000/svg" xmlns:xlink="http://www.w3.org/1999/xlink" width="54.776" height="58.23" viewBox="0 0 54.776 58.23"><defs><style>.a{fill:#c42133;}.b{fill:url(#a);}</style><linearGradient id="a" x1="1.362" y1="-0.054" x2="-0.536" y2="0.748" gradientUnits="objectBoundingBox"><stop offset="0" stop-color="#ecd18a"/><stop offset="0.268" stop-color="#d2b471"/><stop offset="0.523" stop-color="#ecd18a"/><stop offset="0.795" stop-color="#d2b471"/><stop offset="1" stop-color="#e4c87d"/></linearGradient></defs><g transform="translate(0)"><path class="a" d="M1255.139,1100.548q.593-.388,1.186-.775a32.3,32.3,0,0,1,10.165-4.591,22.164,22.164,0,0,1,13.647,1.1c.038.015.059.069.048.055-1.384-.135-2.811-.306-4.242-.408a21.941,21.941,0,0,0-10.546,2.133,48.835,48.835,0,0,1-6.125,2.317,21.345,21.345,0,0,1-4.08.4Z" transform="translate(-1254.723 -1043.506)"/><path class="a" d="M1307.663,1066.025a21.317,21.317,0,0,1-7.752-.619,48.885,48.885,0,0,1-11.053-4.9c-3.385-1.843-6.8-3.639-10.246-5.356a38.559,38.559,0,0,0-4.181-1.523c3-2.223,3.83-5.263,3.6-8.785a28.572,28.572,0,0,1,.126-4.774,11.213,11.213,0,0,1,4.612-8.334,16.708,16.708,0,0,1,9.363-3.146,12.675,12.675,0,0,1,7.487,1.665c.481.3.944.637,1.428.967l8.219-13.6c-.222-.073-.389-.139-.562-.183a53,53,0,0,0-10.088-1.6,34.879,34.879,0,0,0-14.331,1.624,18.986,18.986,0,0,0-12.09,12.057c-1.6,4.657-1.379,9.4-.6,14.161.312,1.915.615,3.835.821,5.764a9.082,9.082,0,0,1-.5,3.867,18.081,18.081,0,0,0-6.239.483,14.926,14.926,0,0,0-9.388,6.162,10.982,10.982,0,0,0-1.8,6.44c.265-.195.443-.338.632-.464,1.67-1.116,3.286-2.328,5.026-3.321a20.379,20.379,0,0,1,12.221-2.6,30.183,30.183,0,0,1,8.484,2.307c3.9,1.567,7.78,3.181,11.731,4.6a21.625,21.625,0,0,0,10.163,1.514A8.043,8.043,0,0,0,1307.663,1066.025Z" transform="translate(-1254.487 -1015.73)"/><path class="a" d="M1307.663,1066.025a8.043,8.043,0,0,1-4.917,2.407,21.625,21.625,0,0,1-10.163-1.514c-3.951-1.42-7.834-3.034-11.731-4.6a30.183,30.183,0,0,0-8.484-2.307,20.379,20.379,0,0,0-12.221,2.6c-1.74.993-3.355,2.205-5.026,3.321-.189.126-.367.269-.632.464a10.982,10.982,0,0,1,1.8-6.44,14.926,14.926,0,0,1,9.388-6.162,18.081,18.081,0,0,1,6.239-.483,9.082,9.082,0,0,0,.5-3.867c-.206-1.929-.509-3.849-.821-5.764-.779-4.765-.995-9.5.6-14.161a18.986,18.986,0,0,1,12.09-12.057,34.879,34.879,0,0,1,14.331-1.624,53,53,0,0,1,10.088,1.6c.173.045.34.111.562.183l-8.219,13.6c-.484-.329-.948-.662-1.428-.967a12.675,12.675,0,0,0-7.487-1.665,16.708,16.708,0,0,0-9.363,3.146,11.213,11.213,0,0,0-4.612,8.334,28.572,28.572,0,0,0-.126,4.774c.233,3.522-.594,6.562-3.6,8.785a38.559,38.559,0,0,1,4.181,1.523c3.449,1.716,6.861,3.512,10.246,5.356a48.885,48.885,0,0,0,11.053,4.9A21.317,21.317,0,0,0,1307.663,1066.025Z" transform="translate(-1254.487 -1015.73)"/><circle class="a" cx="1.801" cy="1.801" r="1.801" transform="translate(0.523 50.723)"/><circle class="a" cx="1.592" cy="1.592" r="1.592" transform="translate(29.706 50.115)"/><circle class="a" cx="1.962" cy="1.962" r="1.962" transform="translate(35.861 52.211)"/><circle class="a" cx="1.962" cy="1.962" r="1.962" transform="translate(49.444 53.069)"/><circle class="a" cx="2.255" cy="2.255" r="2.255" transform="translate(42.33 53.719)"/><circle class="a" cx="1.453" cy="1.453" r="1.453" transform="translate(5.783 47.699)"/><circle class="a" cx="1.453" cy="1.453" r="1.453" transform="translate(24.153 48.146)"/><circle class="a" cx="1.186" cy="1.186" r="1.186" transform="translate(10.701 46.385)"/><circle class="a" cx="1.186" cy="1.186" r="1.186" transform="translate(19.569 46.78)"/><circle class="a" cx="0.936" cy="0.936" r="0.936" transform="translate(15.589 46.38)"/><path class="b" d="M1313.637,1050.707c.615,2.331,2.228,3.291,4.248,3.781a2.521,2.521,0,0,0,.744.142c1.026-.078,1.445.446,1.762,1.379a42,42,0,0,1,2.1,8.359,14.694,14.694,0,0,1-.19,5.375c-2.318-1.571-4.663-3-6.824-4.674a9.429,9.429,0,0,1-3.077-5.614c-.69-2.983-1.169-6.015-1.841-9a2.135,2.135,0,0,1,1.017-2.517,16.126,16.126,0,0,0,5.7-8.084,2.542,2.542,0,0,1,.162-.332,12.51,12.51,0,0,1,5.18,5.346,23.633,23.633,0,0,1,2.691,9.66c.1,1.337.141,2.679.2,4.02.013.27,0,.541,0,.864a3.494,3.494,0,0,1-2.718-2.2c-.386-.862-.726-1.745-1.068-2.626a5.748,5.748,0,0,0-5.1-3.693C1315.679,1050.77,1314.706,1050.768,1313.637,1050.707Z" transform="translate(-1274.051 -1023.932)"/><path class="b" d="M1302.471,1050.441c-1.706.254-2.12,1.009-1.446,2.633a4.052,4.052,0,0,0,2.034,2.216c-1.834,1.3-3.686,2.609-5.543,3.914-2.24,1.575-4.616,1.5-7.124.57,1.858-2.227,1.795-4.842,1.638-7.477a19.763,19.763,0,0,1,.515-6.124,10.074,10.074,0,0,1,6.768-7.377,14.679,14.679,0,0,1,9.3-.593c.473.141.61.279.45.809a16.271,16.271,0,0,1-5.274,7.574,11.933,11.933,0,0,1-1.3,1.035.73.73,0,0,0-.334.927C1302.3,1049.169,1302.37,1049.809,1302.471,1050.441Z" transform="translate(-1267.028 -1023.379)"/></g></svg>